<mxfile host="app.diagrams.net" agent="Mozilla/5.0 (Windows NT 10.0; Win64; x64; rv:132.0) Gecko/20100101 Firefox/132.0" version="24.8.4">
  <diagram name="Signup Flow" id="0">
    <mxGraphModel dx="1596" dy="821" grid="1" gridSize="10" guides="1" tooltips="1" connect="1" arrows="1" fold="1" page="1" pageScale="1" pageWidth="827" pageHeight="1169" math="0" shadow="0">
      <root>
        <mxCell id="0" />
        <mxCell id="1" parent="0" />
        <mxCell id="-osUkOKoSwC1BOyOO0oU-89" value="" style="rounded=0;whiteSpace=wrap;html=1;align=left;glass=0;sketch=1;curveFitting=1;jiggle=2;perimeterSpacing=0;fillColor=#d5e8d4;strokeColor=#82b366;" parent="1" vertex="1">
          <mxGeometry x="950" y="230" width="270" height="470" as="geometry" />
        </mxCell>
        <mxCell id="-osUkOKoSwC1BOyOO0oU-19" style="edgeStyle=orthogonalEdgeStyle;rounded=0;orthogonalLoop=1;jettySize=auto;html=1;entryX=0.5;entryY=0;entryDx=0;entryDy=0;" parent="1" source="2" target="3" edge="1">
          <mxGeometry relative="1" as="geometry" />
        </mxCell>
        <mxCell id="2" value="Entry" style="rounded=1;whiteSpace=wrap;html=1;" parent="1" vertex="1">
          <mxGeometry x="180" y="40" width="120" height="60" as="geometry" />
        </mxCell>
        <mxCell id="-osUkOKoSwC1BOyOO0oU-20" style="edgeStyle=orthogonalEdgeStyle;rounded=0;orthogonalLoop=1;jettySize=auto;html=1;entryX=0.5;entryY=0;entryDx=0;entryDy=0;" parent="1" source="3" target="-osUkOKoSwC1BOyOO0oU-17" edge="1">
          <mxGeometry relative="1" as="geometry" />
        </mxCell>
        <mxCell id="3" value="Profile" style="rounded=1;whiteSpace=wrap;html=1;" parent="1" vertex="1">
          <mxGeometry x="180" y="140" width="120" height="60" as="geometry" />
        </mxCell>
        <mxCell id="-osUkOKoSwC1BOyOO0oU-23" value="" style="edgeStyle=orthogonalEdgeStyle;rounded=0;orthogonalLoop=1;jettySize=auto;html=1;" parent="1" source="4" target="5" edge="1">
          <mxGeometry relative="1" as="geometry" />
        </mxCell>
        <mxCell id="4" value="Fun Questions" style="rounded=1;whiteSpace=wrap;html=1;" parent="1" vertex="1">
          <mxGeometry x="60" y="350" width="120" height="60" as="geometry" />
        </mxCell>
        <mxCell id="-osUkOKoSwC1BOyOO0oU-24" style="edgeStyle=orthogonalEdgeStyle;rounded=0;orthogonalLoop=1;jettySize=auto;html=1;entryX=0;entryY=0.5;entryDx=0;entryDy=0;" parent="1" source="5" target="7" edge="1">
          <mxGeometry relative="1" as="geometry" />
        </mxCell>
        <mxCell id="5" value="Work Experience" style="rounded=1;whiteSpace=wrap;html=1;" parent="1" vertex="1">
          <mxGeometry x="60" y="450" width="120" height="60" as="geometry" />
        </mxCell>
        <mxCell id="-osUkOKoSwC1BOyOO0oU-25" style="edgeStyle=orthogonalEdgeStyle;rounded=0;orthogonalLoop=1;jettySize=auto;html=1;entryX=1;entryY=0.5;entryDx=0;entryDy=0;" parent="1" source="6" target="7" edge="1">
          <mxGeometry relative="1" as="geometry" />
        </mxCell>
        <mxCell id="6" value="Education" style="rounded=1;whiteSpace=wrap;html=1;" parent="1" vertex="1">
          <mxGeometry x="300" y="350" width="120" height="60" as="geometry" />
        </mxCell>
        <mxCell id="-osUkOKoSwC1BOyOO0oU-26" style="edgeStyle=orthogonalEdgeStyle;rounded=0;orthogonalLoop=1;jettySize=auto;html=1;" parent="1" source="7" target="8" edge="1">
          <mxGeometry relative="1" as="geometry" />
        </mxCell>
        <mxCell id="7" value="Career Interest" style="rounded=1;whiteSpace=wrap;html=1;" parent="1" vertex="1">
          <mxGeometry x="180" y="535" width="120" height="60" as="geometry" />
        </mxCell>
        <mxCell id="8" value="Signup Complete" style="rounded=1;whiteSpace=wrap;html=1;" parent="1" vertex="1">
          <mxGeometry x="177.5" y="640" width="125" height="60" as="geometry" />
        </mxCell>
        <mxCell id="-osUkOKoSwC1BOyOO0oU-21" style="edgeStyle=orthogonalEdgeStyle;rounded=0;orthogonalLoop=1;jettySize=auto;html=1;" parent="1" source="-osUkOKoSwC1BOyOO0oU-17" target="4" edge="1">
          <mxGeometry relative="1" as="geometry" />
        </mxCell>
        <mxCell id="-osUkOKoSwC1BOyOO0oU-22" style="edgeStyle=orthogonalEdgeStyle;rounded=0;orthogonalLoop=1;jettySize=auto;html=1;entryX=0.5;entryY=0;entryDx=0;entryDy=0;" parent="1" source="-osUkOKoSwC1BOyOO0oU-17" target="6" edge="1">
          <mxGeometry relative="1" as="geometry" />
        </mxCell>
        <mxCell id="-osUkOKoSwC1BOyOO0oU-17" value="Account Type" style="rounded=1;whiteSpace=wrap;html=1;fillColor=#d5e8d4;strokeColor=#82b366;" parent="1" vertex="1">
          <mxGeometry x="180" y="240" width="120" height="60" as="geometry" />
        </mxCell>
        <mxCell id="-osUkOKoSwC1BOyOO0oU-18" value="&lt;div&gt;&lt;b&gt;Entry &lt;/b&gt;- email and&amp;nbsp;&lt;/div&gt;&lt;div&gt;password&lt;/div&gt;&lt;div&gt;&lt;br&gt;&lt;/div&gt;&lt;div&gt;&lt;b&gt;Profile &lt;/b&gt;- generic bio&lt;/div&gt;&lt;div&gt;&lt;br&gt;&lt;/div&gt;" style="text;html=1;whiteSpace=wrap;overflow=hidden;rounded=0;" parent="1" vertex="1">
          <mxGeometry x="40" y="50" width="130" height="80" as="geometry" />
        </mxCell>
        <mxCell id="-osUkOKoSwC1BOyOO0oU-27" style="edgeStyle=orthogonalEdgeStyle;rounded=0;orthogonalLoop=1;jettySize=auto;html=1;entryX=0.5;entryY=0;entryDx=0;entryDy=0;" parent="1" source="-osUkOKoSwC1BOyOO0oU-28" target="-osUkOKoSwC1BOyOO0oU-30" edge="1">
          <mxGeometry relative="1" as="geometry" />
        </mxCell>
        <mxCell id="-osUkOKoSwC1BOyOO0oU-28" value="Entry" style="rounded=1;whiteSpace=wrap;html=1;" parent="1" vertex="1">
          <mxGeometry x="520" y="140" width="120" height="60" as="geometry" />
        </mxCell>
        <mxCell id="-osUkOKoSwC1BOyOO0oU-49" value="" style="edgeStyle=orthogonalEdgeStyle;rounded=0;orthogonalLoop=1;jettySize=auto;html=1;" parent="1" source="-osUkOKoSwC1BOyOO0oU-30" target="-osUkOKoSwC1BOyOO0oU-32" edge="1">
          <mxGeometry relative="1" as="geometry" />
        </mxCell>
        <mxCell id="-osUkOKoSwC1BOyOO0oU-30" value="Profile" style="rounded=1;whiteSpace=wrap;html=1;" parent="1" vertex="1">
          <mxGeometry x="520" y="230" width="120" height="60" as="geometry" />
        </mxCell>
        <mxCell id="-osUkOKoSwC1BOyOO0oU-31" value="" style="edgeStyle=orthogonalEdgeStyle;rounded=0;orthogonalLoop=1;jettySize=auto;html=1;" parent="1" source="-osUkOKoSwC1BOyOO0oU-32" target="-osUkOKoSwC1BOyOO0oU-34" edge="1">
          <mxGeometry relative="1" as="geometry" />
        </mxCell>
        <mxCell id="-osUkOKoSwC1BOyOO0oU-32" value="Fun Questions" style="rounded=1;whiteSpace=wrap;html=1;" parent="1" vertex="1">
          <mxGeometry x="520" y="320" width="120" height="60" as="geometry" />
        </mxCell>
        <mxCell id="-osUkOKoSwC1BOyOO0oU-56" value="" style="edgeStyle=orthogonalEdgeStyle;rounded=0;orthogonalLoop=1;jettySize=auto;html=1;" parent="1" source="-osUkOKoSwC1BOyOO0oU-34" target="-osUkOKoSwC1BOyOO0oU-38" edge="1">
          <mxGeometry relative="1" as="geometry" />
        </mxCell>
        <mxCell id="-osUkOKoSwC1BOyOO0oU-34" value="Work Experience" style="rounded=1;whiteSpace=wrap;html=1;" parent="1" vertex="1">
          <mxGeometry x="520" y="410" width="120" height="60" as="geometry" />
        </mxCell>
        <mxCell id="-osUkOKoSwC1BOyOO0oU-62" value="" style="edgeStyle=orthogonalEdgeStyle;rounded=0;orthogonalLoop=1;jettySize=auto;html=1;" parent="1" source="-osUkOKoSwC1BOyOO0oU-36" target="-osUkOKoSwC1BOyOO0oU-54" edge="1">
          <mxGeometry relative="1" as="geometry" />
        </mxCell>
        <mxCell id="-osUkOKoSwC1BOyOO0oU-36" value="Education" style="rounded=1;whiteSpace=wrap;html=1;" parent="1" vertex="1">
          <mxGeometry x="720" y="320" width="120" height="60" as="geometry" />
        </mxCell>
        <mxCell id="-osUkOKoSwC1BOyOO0oU-59" value="" style="edgeStyle=orthogonalEdgeStyle;rounded=0;orthogonalLoop=1;jettySize=auto;html=1;" parent="1" source="-osUkOKoSwC1BOyOO0oU-38" target="-osUkOKoSwC1BOyOO0oU-39" edge="1">
          <mxGeometry relative="1" as="geometry" />
        </mxCell>
        <mxCell id="-osUkOKoSwC1BOyOO0oU-38" value="Career Interest" style="rounded=1;whiteSpace=wrap;html=1;" parent="1" vertex="1">
          <mxGeometry x="520" y="500" width="120" height="60" as="geometry" />
        </mxCell>
        <mxCell id="-osUkOKoSwC1BOyOO0oU-39" value="Signup Complete" style="rounded=1;whiteSpace=wrap;html=1;" parent="1" vertex="1">
          <mxGeometry x="520" y="590" width="120" height="60" as="geometry" />
        </mxCell>
        <mxCell id="-osUkOKoSwC1BOyOO0oU-50" value="" style="edgeStyle=orthogonalEdgeStyle;rounded=0;orthogonalLoop=1;jettySize=auto;html=1;" parent="1" source="-osUkOKoSwC1BOyOO0oU-47" target="-osUkOKoSwC1BOyOO0oU-48" edge="1">
          <mxGeometry relative="1" as="geometry" />
        </mxCell>
        <mxCell id="-osUkOKoSwC1BOyOO0oU-47" value="Entry" style="rounded=1;whiteSpace=wrap;html=1;" parent="1" vertex="1">
          <mxGeometry x="720" y="140" width="120" height="60" as="geometry" />
        </mxCell>
        <mxCell id="-osUkOKoSwC1BOyOO0oU-51" value="" style="edgeStyle=orthogonalEdgeStyle;rounded=0;orthogonalLoop=1;jettySize=auto;html=1;" parent="1" source="-osUkOKoSwC1BOyOO0oU-48" target="-osUkOKoSwC1BOyOO0oU-36" edge="1">
          <mxGeometry relative="1" as="geometry" />
        </mxCell>
        <mxCell id="-osUkOKoSwC1BOyOO0oU-48" value="Profile" style="rounded=1;whiteSpace=wrap;html=1;" parent="1" vertex="1">
          <mxGeometry x="720" y="230" width="120" height="60" as="geometry" />
        </mxCell>
        <mxCell id="-osUkOKoSwC1BOyOO0oU-63" value="" style="edgeStyle=orthogonalEdgeStyle;rounded=0;orthogonalLoop=1;jettySize=auto;html=1;" parent="1" source="-osUkOKoSwC1BOyOO0oU-54" target="-osUkOKoSwC1BOyOO0oU-60" edge="1">
          <mxGeometry relative="1" as="geometry" />
        </mxCell>
        <mxCell id="-osUkOKoSwC1BOyOO0oU-54" value="Career Interest" style="rounded=1;whiteSpace=wrap;html=1;" parent="1" vertex="1">
          <mxGeometry x="720" y="410" width="120" height="60" as="geometry" />
        </mxCell>
        <mxCell id="-osUkOKoSwC1BOyOO0oU-60" value="Signup Complete" style="rounded=1;whiteSpace=wrap;html=1;" parent="1" vertex="1">
          <mxGeometry x="720" y="500" width="120" height="60" as="geometry" />
        </mxCell>
        <mxCell id="-osUkOKoSwC1BOyOO0oU-64" style="edgeStyle=orthogonalEdgeStyle;rounded=0;orthogonalLoop=1;jettySize=auto;html=1;entryX=0.5;entryY=0;entryDx=0;entryDy=0;" parent="1" source="-osUkOKoSwC1BOyOO0oU-65" target="-osUkOKoSwC1BOyOO0oU-67" edge="1">
          <mxGeometry relative="1" as="geometry" />
        </mxCell>
        <mxCell id="-osUkOKoSwC1BOyOO0oU-65" value="Mentor Entry" style="rounded=1;whiteSpace=wrap;html=1;fillColor=#fff2cc;strokeColor=#d6b656;" parent="1" vertex="1">
          <mxGeometry x="1080" y="140" width="120" height="60" as="geometry" />
        </mxCell>
        <mxCell id="-osUkOKoSwC1BOyOO0oU-66" value="" style="edgeStyle=orthogonalEdgeStyle;rounded=0;orthogonalLoop=1;jettySize=auto;html=1;" parent="1" source="-osUkOKoSwC1BOyOO0oU-67" target="-osUkOKoSwC1BOyOO0oU-69" edge="1">
          <mxGeometry relative="1" as="geometry" />
        </mxCell>
        <mxCell id="-osUkOKoSwC1BOyOO0oU-67" value="Profile" style="rounded=1;whiteSpace=wrap;html=1;" parent="1" vertex="1">
          <mxGeometry x="1080" y="250" width="120" height="60" as="geometry" />
        </mxCell>
        <mxCell id="-osUkOKoSwC1BOyOO0oU-68" value="" style="edgeStyle=orthogonalEdgeStyle;rounded=0;orthogonalLoop=1;jettySize=auto;html=1;" parent="1" source="-osUkOKoSwC1BOyOO0oU-69" target="-osUkOKoSwC1BOyOO0oU-71" edge="1">
          <mxGeometry relative="1" as="geometry" />
        </mxCell>
        <mxCell id="-osUkOKoSwC1BOyOO0oU-69" value="Fun Questions" style="rounded=1;whiteSpace=wrap;html=1;" parent="1" vertex="1">
          <mxGeometry x="1080" y="340" width="120" height="60" as="geometry" />
        </mxCell>
        <mxCell id="-osUkOKoSwC1BOyOO0oU-70" value="" style="edgeStyle=orthogonalEdgeStyle;rounded=0;orthogonalLoop=1;jettySize=auto;html=1;" parent="1" source="-osUkOKoSwC1BOyOO0oU-71" target="-osUkOKoSwC1BOyOO0oU-75" edge="1">
          <mxGeometry relative="1" as="geometry" />
        </mxCell>
        <mxCell id="-osUkOKoSwC1BOyOO0oU-71" value="Work Experience" style="rounded=1;whiteSpace=wrap;html=1;" parent="1" vertex="1">
          <mxGeometry x="1080" y="430" width="120" height="60" as="geometry" />
        </mxCell>
        <mxCell id="-osUkOKoSwC1BOyOO0oU-72" value="" style="edgeStyle=orthogonalEdgeStyle;rounded=0;orthogonalLoop=1;jettySize=auto;html=1;" parent="1" source="-osUkOKoSwC1BOyOO0oU-73" target="-osUkOKoSwC1BOyOO0oU-85" edge="1">
          <mxGeometry relative="1" as="geometry" />
        </mxCell>
        <mxCell id="-osUkOKoSwC1BOyOO0oU-73" value="Education" style="rounded=1;whiteSpace=wrap;html=1;" parent="1" vertex="1">
          <mxGeometry x="1280" y="320" width="120" height="60" as="geometry" />
        </mxCell>
        <mxCell id="-osUkOKoSwC1BOyOO0oU-74" value="" style="edgeStyle=orthogonalEdgeStyle;rounded=0;orthogonalLoop=1;jettySize=auto;html=1;" parent="1" source="-osUkOKoSwC1BOyOO0oU-75" target="-osUkOKoSwC1BOyOO0oU-76" edge="1">
          <mxGeometry relative="1" as="geometry" />
        </mxCell>
        <mxCell id="-osUkOKoSwC1BOyOO0oU-75" value="Career Interest" style="rounded=1;whiteSpace=wrap;html=1;" parent="1" vertex="1">
          <mxGeometry x="1080" y="520" width="120" height="60" as="geometry" />
        </mxCell>
        <mxCell id="-osUkOKoSwC1BOyOO0oU-76" value="Signup Complete" style="rounded=1;whiteSpace=wrap;html=1;" parent="1" vertex="1">
          <mxGeometry x="1080" y="610" width="120" height="60" as="geometry" />
        </mxCell>
        <mxCell id="-osUkOKoSwC1BOyOO0oU-77" style="edgeStyle=orthogonalEdgeStyle;rounded=0;orthogonalLoop=1;jettySize=auto;html=1;entryX=0.5;entryY=0;entryDx=0;entryDy=0;" parent="1" source="-osUkOKoSwC1BOyOO0oU-79" target="-osUkOKoSwC1BOyOO0oU-65" edge="1">
          <mxGeometry relative="1" as="geometry" />
        </mxCell>
        <mxCell id="-osUkOKoSwC1BOyOO0oU-78" style="edgeStyle=orthogonalEdgeStyle;rounded=0;orthogonalLoop=1;jettySize=auto;html=1;entryX=0.5;entryY=0;entryDx=0;entryDy=0;" parent="1" source="-osUkOKoSwC1BOyOO0oU-79" target="-osUkOKoSwC1BOyOO0oU-81" edge="1">
          <mxGeometry relative="1" as="geometry" />
        </mxCell>
        <mxCell id="-osUkOKoSwC1BOyOO0oU-79" value="Account Type" style="rounded=1;whiteSpace=wrap;html=1;fillColor=#d5e8d4;strokeColor=#82b366;" parent="1" vertex="1">
          <mxGeometry x="1180" y="30" width="120" height="60" as="geometry" />
        </mxCell>
        <mxCell id="-osUkOKoSwC1BOyOO0oU-80" value="" style="edgeStyle=orthogonalEdgeStyle;rounded=0;orthogonalLoop=1;jettySize=auto;html=1;" parent="1" source="-osUkOKoSwC1BOyOO0oU-81" target="-osUkOKoSwC1BOyOO0oU-83" edge="1">
          <mxGeometry relative="1" as="geometry" />
        </mxCell>
        <mxCell id="-osUkOKoSwC1BOyOO0oU-81" value="Mentee Entry" style="rounded=1;whiteSpace=wrap;html=1;fillColor=#fff2cc;strokeColor=#d6b656;" parent="1" vertex="1">
          <mxGeometry x="1280" y="140" width="120" height="60" as="geometry" />
        </mxCell>
        <mxCell id="-osUkOKoSwC1BOyOO0oU-82" value="" style="edgeStyle=orthogonalEdgeStyle;rounded=0;orthogonalLoop=1;jettySize=auto;html=1;" parent="1" source="-osUkOKoSwC1BOyOO0oU-83" target="-osUkOKoSwC1BOyOO0oU-73" edge="1">
          <mxGeometry relative="1" as="geometry" />
        </mxCell>
        <mxCell id="-osUkOKoSwC1BOyOO0oU-83" value="Profile" style="rounded=1;whiteSpace=wrap;html=1;" parent="1" vertex="1">
          <mxGeometry x="1280" y="230" width="120" height="60" as="geometry" />
        </mxCell>
        <mxCell id="-osUkOKoSwC1BOyOO0oU-84" value="" style="edgeStyle=orthogonalEdgeStyle;rounded=0;orthogonalLoop=1;jettySize=auto;html=1;" parent="1" source="-osUkOKoSwC1BOyOO0oU-85" target="-osUkOKoSwC1BOyOO0oU-86" edge="1">
          <mxGeometry relative="1" as="geometry" />
        </mxCell>
        <mxCell id="-osUkOKoSwC1BOyOO0oU-85" value="Career Interest" style="rounded=1;whiteSpace=wrap;html=1;" parent="1" vertex="1">
          <mxGeometry x="1280" y="410" width="120" height="60" as="geometry" />
        </mxCell>
        <mxCell id="-osUkOKoSwC1BOyOO0oU-86" value="Signup Complete" style="rounded=1;whiteSpace=wrap;html=1;" parent="1" vertex="1">
          <mxGeometry x="1280" y="500" width="120" height="60" as="geometry" />
        </mxCell>
        <mxCell id="-osUkOKoSwC1BOyOO0oU-90" value="Mentor Interest Form" style="text;html=1;align=left;verticalAlign=middle;whiteSpace=wrap;rounded=0;" parent="1" vertex="1">
          <mxGeometry x="970" y="250" width="90" height="30" as="geometry" />
        </mxCell>
      </root>
    </mxGraphModel>
  </diagram>
</mxfile>
